{"title":"The Adjustment Burea *2011* [PPVRip.XviD-miguel] [ENG]","uid":6382424,"size":1367187364,"categoryP":"video","categoryS":"movies","magnet":"?xt=urn:btih:51a0b7ad5f9dbd71bd9e7ed1cd9c4ab1c6a4ca7c&amp;dn=The+Adjustment+Burea+%2A2011%2A+%5BPPVRip.XviD-miguel%5D+%5BENG%5D&amp;tr=udp%3A%2F%2Ftracker.openbittorrent.com%3A80&amp;tr=udp%3A%2F%2Fopen.demonii.com%3A1337&amp;tr=udp%3A%2F%2Ftracker.coppersurfer.tk%3A6969&amp;tr=udp%3A%2F%2Fexodus.desync.com%3A6969","seeders":0,"leechers":1,"uploader":"miguel1983","files":-1,"time":1305075901,"description":" &lt;a href=&quot;http://img36.imageshack.us/img36/9227/theadjustmentbureaupost.jpg&quot; rel=&quot;nofollow&quot; target=&quot;_NEW&quot;&gt;http://img36.imageshack.us/img36/9227/theadjustmentbureaupost.jpg&lt;/a&gt;\n\nCountry.......: USA\nGenre.........: Thriller, Sci-Fi, Drama\nDate release..: 26.02.2011 [World]\nDirector......: George Nolfi\nWriters.......: George Nolfi, Philip K. Dick\nDuration......: 105 min.\nMore..........: http://www.imdb.com/title/tt1385826\nTrailer.......: http://www.imdb.com/video/imdb/vi2215418393\nTrailer.......:\n\nPilot :\nThe affair between a politician and a ballerina is affected by mysterious forces keeping the lovers apart. \n\nCats :\nMatt Damon   \t ...  \tDavid Norris\nEmily Blunt \t... \tElise Sellas\nFlorence Kastriner \t... \tSuburban Mom\nPhyllis MacBryde \t... \tSuburban Neighbor\nNatalie Carter \t... \tSuburban Neighbor (as Natalie E. Carter)\nChuck Scarborough \t... \tHimself\nJon Stewart \t... \tHimself\nGregory P. Hitchen \t... \tU.S. Coast Guard Officer (as Capt. Gregory P. Hitchen)\nDarrell Lenormand \t... \tUpstate Farmer\nKar \tKar \t... \tPolitical Consultant\nMichael Kelly \t... \tCharlie Traynor\nRJ Konner \t... \tPolitical Consultant\nSusan D. Michaels \t... \tReporter\nAnthony Mackie \t... \tHarry Mitchell\nGregory Lay \t... \tAlbert, Campaign Aide \n\nData Technical :\n!!! SAMPLE !!!\nAudio.....: English\nSubtitles.: None\nFormat                           : AVI\nFormat/Info                      : Audio Video Interleave\nFile size                        : 1.27 GiB\nDuration                         : 1h 45mn\nOverall bit rate                 : 1 730 Kbps\nWriting library                  : VirtualDub build 32706/release\nVideo\nID                               : 0\nFormat                           : MPEG-4 Visual\nFormat profile                   : Advanced Simple@L5\nFormat settings, BVOP            : Yes\nFormat settings, QPel            : No\nFormat settings, GMC             : No warppoints\nFormat settings, Matrix          : Default (MPEG)\nMuxing mode                      : Packed bitstream\nCodec ID                         : XVID\nCodec ID/Hint                    : XviD\nDuration                         : 1h 45mn\nBit rate                         : 1 590 Kbps\nWidth                            : 720 pixels\nHeight                           : 400 pixels\nDisplay aspect ratio             : 16:9\nFrame rate                       : 23.976 fps\nColor space                      : YUV\nChroma subsampling               : 4:2:0\nBit depth                        : 8 bits\nScan type                        : Progressive\nBits/(Pixel*Frame)               : 0.230\nStream size                      : 1.17 GiB (92%)\nWriting library                  : XviD 61\nAudio\nID                               : 1\nFormat                           : MPEG Audio\nFormat version                   : Version 1\nFormat profile                   : Layer 3\nMode                             : Joint stereo\nMode extension                   : MS Stereo\nCodec ID                         : 55\nCodec ID/Hint                    : MP3\nDuration                         : 1h 45mn\nBit rate mode                    : Constant\nBit rate                         : 128 Kbps\nChannel(s)                       : 2 channels\nSampling rate                    : 44.1 KHz\nStream size                      : 96.2 MiB (7%)\nAlignment                        : Aligned on interleaves\nInterleave, duration             : 26 ms (0.63 video frame)\nInterleave, preload duration     : 522 ms\nWriting library                  : LAME3.98.2\n\nScreen : &lt;a href=&quot;\nhttp://img189.imageshack.us/img189/759/theadjustmentburea2011s.jpg&quot; rel=&quot;nofollow&quot; target=&quot;_NEW&quot;&gt;\nhttp://img189.imageshack.us/img189/759/theadjustmentburea2011s.jpg&lt;/a&gt; &lt;a href=&quot;\nhttp://img64.imageshack.us/img64/759/theadjustmentburea2011s.jpg&quot; rel=&quot;nofollow&quot; target=&quot;_NEW&quot;&gt;\nhttp://img64.imageshack.us/img64/759/theadjustmentburea2011s.jpg&lt;/a&gt; &lt;a href=&quot;\nhttp://img864.imageshack.us/img864/759/theadjustmentburea2011s.jpg&quot; rel=&quot;nofollow&quot; target=&quot;_NEW&quot;&gt;\nhttp://img864.imageshack.us/img864/759/theadjustmentburea2011s.jpg&lt;/a&gt; &lt;a href=&quot;\nhttp://img844.imageshack.us/img844/759/theadjustmentburea2011s.jpg&quot; rel=&quot;nofollow&quot; target=&quot;_NEW&quot;&gt;\nhttp://img844.imageshack.us/img844/759/theadjustmentburea2011s.jpg&lt;/a&gt; &lt;a href=&quot;\nhttp://img171.imageshack.us/img171/759/theadjustmentburea2011s.jpg&quot; rel=&quot;nofollow&quot; target=&quot;_NEW&quot;&gt;\nhttp://img171.imageshack.us/img171/759/theadjustmentburea2011s.jpg&lt;/a&gt;","torrent":{"xt":"urn:btih:51a0b7ad5f9dbd71bd9e7ed1cd9c4ab1c6a4ca7c","amp;dn":"The+Adjustment+Burea+%2A2011%2A+%5BPPVRip.XviD-miguel%5D+%5BENG%5D","amp;tr":["udp%3A%2F%2Ftracker.openbittorrent.com%3A80","udp%3A%2F%2Fopen.demonii.com%3A1337","udp%3A%2F%2Ftracker.coppersurfer.tk%3A6969","udp%3A%2F%2Fexodus.desync.com%3A6969"],"infoHash":"51a0b7ad5f9dbd71bd9e7ed1cd9c4ab1c6a4ca7c","infoHashBuffer":{"type":"Buffer","data":[81,160,183,173,95,157,189,113,189,158,126,209,205,156,74,177,198,164,202,124]},"announce":[],"urlList":[]}}